<?xml version="1.0" encoding="UTF-8" standalone="no"?>
<svg
   width="93"
   height="83"
   viewBox="0 0 93 83"
   fill="none"
   version="1.1"
   id="svg120"
   sodipodi:docname="icon-target.svg"
   inkscape:version="1.2.2 (732a01da63, 2022-12-09)"
   xmlns:inkscape="http://www.inkscape.org/namespaces/inkscape"
   xmlns:sodipodi="http://sodipodi.sourceforge.net/DTD/sodipodi-0.dtd"
   xmlns="http://www.w3.org/2000/svg"
   xmlns:svg="http://www.w3.org/2000/svg">
  <defs
     id="defs124" />
  <sodipodi:namedview
     id="namedview122"
     pagecolor="#ffffff"
     bordercolor="#000000"
     borderopacity="0.25"
     inkscape:showpageshadow="2"
     inkscape:pageopacity="0.0"
     inkscape:pagecheckerboard="0"
     inkscape:deskcolor="#d1d1d1"
     showgrid="false"
     inkscape:zoom="8.0866142"
     inkscape:cx="59.975657"
     inkscape:cy="63.438169"
     inkscape:window-width="2560"
     inkscape:window-height="1377"
     inkscape:window-x="-8"
     inkscape:window-y="-8"
     inkscape:window-maximized="1"
     inkscape:current-layer="svg120" />
  <path
     d="m 88.731258,50.437847 c 6.1272,-19.9661 4.723,-38.1071 -3.1363,-40.519 -7.8594,-2.4119 -19.1978,11.8186 -25.3251,31.7847 -6.1272,19.9661 -4.723,38.107 3.1364,40.519 7.8593,2.412 19.1977,-11.8186 25.325,-31.7847 z"
     fill="#303646"
     id="path64" />
  <path
     d="m 86.390158,49.720247 c 6.1273,-19.9661 5.1841,-37.9656 -2.1065,-40.2029 -7.2907,-2.2374 -18.168,12.1346 -24.2953,32.1007 -6.1272,19.9661 -5.1841,37.9655 2.1066,40.2025 7.2906,2.238 18.168,-12.1342 24.2952,-32.1003 z"
     fill="#ffffff"
     id="path66" />
  <path
     d="m 84.189258,49.045347 c 5.4155,-17.6468 4.5821,-33.5553 -1.8615,-35.5328 -6.4436,-1.9774 -16.0573,10.7251 -21.4728,28.372 -5.4155,17.6468 -4.5821,33.555 1.8616,35.533 6.4436,1.977 16.0572,-10.7253 21.4727,-28.3722 z"
     fill="#cd2b31"
     id="path68" />
  <path
     d="m 81.450358,48.200847 c 4.4086,-14.3655 3.7299,-27.316 -1.5157,-28.9258 -5.2456,-1.6098 -13.0719,8.7308 -17.4804,23.0963 -4.4085,14.3655 -3.7299,27.316 1.5157,28.9258 5.2457,1.6098 13.0719,-8.7308 17.4804,-23.0963 z"
     fill="#ffffff"
     id="path70" />
  <path
     d="m 79.672158,46.902147 c 3.5862,-11.6658 3.0398,-22.1844 -1.2203,-23.494 -4.2601,-1.3095 -10.6207,7.0858 -14.2068,18.7516 -3.5862,11.6658 -3.0399,22.1844 1.2202,23.494 4.2601,1.3096 10.6208,-7.0858 14.2069,-18.7516 z"
     fill="#cd2b31"
     id="path72" />
  <path
     d="m 75.941358,46.513247 c 2.3946,-7.8029 2.0256,-14.8374 -0.8241,-15.7119 -2.8497,-0.8745 -7.101,4.7421 -9.4956,12.545 -2.3946,7.8029 -2.0256,14.8373 0.8241,15.7118 2.8497,0.8746 7.101,-4.742 9.4956,-12.5449 z"
     fill="#ffffff"
     id="path74" />
  <path
     d="m 74.094058,45.188247 c 1.2096,-3.935 1.0249,-7.4832 -0.4126,-7.9251 -1.4375,-0.4419 -3.5835,2.3898 -4.7932,6.3249 -1.2096,3.935 -1.0249,7.4832 0.4126,7.9251 1.4376,0.4419 3.5835,-2.3898 4.7932,-6.3249 z"
     fill="#cd2b31"
     id="path76" />
  <path
     d="m 66.776158,39.642947 c -0.864,1.0973 -3.4594,4.0627 -3.4026,4.5645 0.0568,0.5018 3.4135,-0.4994 3.5789,-1.3602 0.1653,-0.8608 -0.1763,-3.2043 -0.1763,-3.2043 z"
     fill="#bab3b4"
     id="path78" />
  <path
     d="m 5.0004382,11.246447 c 0.31746,-0.1245 4.18592,-1.5169 5.0593198,-1.3234 0.5923,0.1652 1.1334,0.4771 1.5734,0.9068 -2.5042998,1.2569 -4.0496798,2.0304 -5.1903698,1.3912 -0.5929,-0.3347 -1.04269,-0.5532 -1.29498,-0.7 -0.25228,-0.1469 -0.30007,-0.2122 -0.14737,-0.2746 z"
     fill="#ffffff"
     id="path80" />
  <path
     opacity="0.09"
     d="m 5.0004882,11.246447 c 0.31746,-0.1245 4.18597,-1.5169 5.0592698,-1.3234 -0.2442998,0.5095 -3.5392398,2.2385 -4.9118898,1.598 -0.22957,-0.1378 -0.30007,-0.2122 -0.14738,-0.2746 z"
     fill="#1f1f39"
     id="path82" />
  <path
     d="m 3.4921882,10.343747 c 0.31269,-0.1271 4.18597,-1.5169 5.05457,-1.326 0.6049,0.1738 1.1551,0.5 1.5976998,0.9473 -2.5042798,1.2569 -4.0684398,2.0082 -5.2135798,1.3544 -0.59036,-0.3394 -1.03899,-0.5543 -1.29127,-0.7011 -0.25229,-0.1469 -0.30123,-0.2158 -0.14742,-0.2746 z"
     fill="#ffffff"
     id="path84" />
  <path
     opacity="0.09"
     d="m 3.4920882,10.343747 c 0.3127,-0.127 4.18597,-1.5169 5.05457,-1.3259 -0.2443,0.5095 -2.05841,1.7121 -4.90715,1.6005 -0.23688,-0.1355 -0.30123,-0.2158 -0.14742,-0.2746 z"
     fill="#1f1f39"
     id="path86" />
  <path
     d="m 1.7839282,9.270147 c 0.66033,-0.042 1.30948,-0.1909 1.92207,-0.4409 l 0.02556,-0.0078 c 1.29543,-0.5059 2.67081,-0.9722 3.10693,-0.8773 0.65058,0.211 1.23808,0.5813 1.70907,1.0772 -2.50318,1.2605 -4.17868,1.882 -5.32604,1.2209 -0.59036,-0.3395 -1.03899,-0.5543 -1.29128,-0.7012 l -0.0785,-0.048 c -0.17126,-0.1036 -0.20334,-0.1697 -0.06781,-0.2229 z"
     fill="#ffffff"
     id="path88" />
  <path
     opacity="0.09"
     d="m 1.7839282,9.270147 c 0.66033,-0.042 1.30948,-0.1909 1.92207,-0.4409 l 0.02556,-0.0078 c 1.32657,-0.4954 2.72212,-0.9479 3.15824,-0.8529 -0.24427,0.5095 -2.71012,1.5909 -4.9108,1.6016 l -0.12614,-0.0734 c -0.17237,-0.1073 -0.20446,-0.1734 -0.06893,-0.2266 z"
     fill="#1f1f39"
     id="path90" />
  <path
     d="m 0.08748818,8.221347 c 0.31746,-0.1245 4.18593002,-1.5169 5.05817002,-1.3271 0.64155,0.2066 1.22279,0.5672 1.69292,1.0501 -2.50431,1.2569 -4.16725,1.9065 -5.30873,1.2516 -0.59290002,-0.3347 -1.04270002,-0.5532 -1.29498002,-0.7 -0.25229,-0.1469 -0.30118,-0.2159 -0.14738,-0.2746 z"
     fill="#ffffff"
     id="path92" />
  <path
     opacity="0.23"
     d="m 0.08754818,8.221247 c 0.31746,-0.1245 4.18592002,-1.5169 5.05816002,-1.3271 -0.24427,0.5095 -3.03318,0.8309 -4.91079002,1.6017 -0.22957,-0.1378 -0.30118,-0.2158 -0.14737,-0.2746 z"
     fill="#1f1f39"
     id="path94" />
  <path
     d="m 3.9915782,5.935547 c 0.0941,0.2488 0.25313,0.4679 0.46053,0.6345 1.20418,1.071 61.0396498,37.2245 61.1908498,37.446 0.0111,0.0366 0.0788,0.0359 0.1603,0.0151 0.1136,-0.0299 0.2217,-0.0776 0.3203,-0.1413 0.5009,-0.2961 1.1144,-0.9698 0.4451,-1.5688 -0.0602,-0.0548 -0.1247,-0.1046 -0.193,-0.1489 0,0 -59.5434598,-37.1886 -60.7194898,-37.3139 -0.93262,-0.0996 -1.89566,0.3571 -1.66459,1.0773 z"
     fill="#543237"
     id="path96" />
  <path
     d="m 9.9204582,3.126047 c 0.031,0.338 0.5453998,4.4177 1.1106998,5.1081 0.4162,0.4544 0.9404,0.7962 1.5241,0.9937 -0.0108,-2.7916 -0.0142,-4.5353 -1.1106,-5.2519 -0.5689,-0.3739 -0.9644,-0.6768 -1.2105,-0.8295 -0.2460998,-0.1527 -0.3321998,-0.1864 -0.3136998,-0.0204 z"
     fill="#ffffff"
     id="path98" />
  <path
     opacity="0.09"
     d="m 9.9203582,3.125947 c 0.0309,0.338 0.5452998,4.4177 1.1106998,5.1081 0.3451,-0.4404 0.3919,-4.1717 -0.8004,-5.0987 -0.2304,-0.1535 -0.3288998,-0.1754 -0.3102998,-0.0094 z"
     fill="#1f1f39"
     id="path100" />
  <path
     d="m 8.4288582,2.186347 c 0.031,0.3379 0.5453,4.4176 1.1107,5.108 0.4289,0.4596 0.9686998,0.8013 1.5674998,0.9924 -0.0107,-2.7915 -0.054,-4.5351 -1.1561998,-5.2578 -0.5689,-0.374 -0.9645,-0.6768 -1.2106,-0.8296 -0.2461,-0.1527 -0.3288,-0.1754 -0.3114,-0.013 z"
     fill="#ffffff"
     id="path102" />
  <path
     opacity="0.09"
     d="m 8.4289582,2.186247 c 0.0309,0.3379 0.5453,4.4176 1.1106,5.1081 0.3452,-0.4404 0.5910998,-2.6113 -0.8015,-5.1023 -0.2281,-0.1462 -0.3266,-0.1682 -0.3091,-0.0058 z"
     fill="#1f1f39"
     id="path104" />
  <path
     d="m 6.6968882,1.152047 c 0.26375,0.606 0.42629,1.2512 0.48115,1.9098 0,0 0.00556,0.0183 0.0089,0.0292 0.13629,1.38 0.34233,2.8185 0.62795,3.1668 0.48247,0.4833 1.07767,0.8387 1.73197,1.0343 -0.0107,-2.7916 -0.2185,-4.577 -1.3207,-5.2997 -0.57002,-0.3776 -0.96556,-0.6805 -1.20688,-0.8307 l -0.07849,-0.048 c -0.18445,-0.1076 -0.25691,-0.1095 -0.2439,0.0383 z"
     fill="#ffffff"
     id="path106" />
  <path
     opacity="0.09"
     d="m 6.6968782,1.151947 c 0.26374,0.606 0.42628,1.2512 0.48115,1.9098 0,0 0.00555,0.0183 0.00889,0.0293 0.1598,1.4047 0.38856,2.8523 0.67307,3.1969 0.34517,-0.4403 0.18695,-3.1391 -0.80039,-5.0986 l -0.12105,-0.083 c -0.18223,-0.1002 -0.25468,-0.1022 -0.24167,0.0456 z"
     fill="#1f1f39"
     id="path108" />
  <path
     d="m 4.9916282,0.11374703 c 0.03205,0.3416 0.54643,4.42129997 1.11434,5.10689997 0.47349,0.4807 1.05782,0.8377 1.70164,1.0395 -0.01075,-2.7915 -0.19546,-4.5799 -1.29038,-5.30489997 -0.5689,-0.3739 -0.96444,-0.6768 -1.21053,-0.8295 -0.24609,-0.1528 -0.32887,-0.1755 -0.31507,-0.012 z"
     fill="#ffffff"
     id="path110" />
  <path
     opacity="0.23"
     d="m 4.9916182,0.11364703 c 0.03205,0.3416 0.54644,4.42119997 1.11435,5.10689997 0.34515,-0.4404 -0.63638,-3.0764 -0.80039,-5.09859997 -0.22924,-0.1499 -0.32776,-0.1718 -0.31396,-0.0083 z"
     fill="#1f1f39"
     id="path112" />
  <path
     opacity="0.47"
     d="m 3.9917082,5.935547 c 0.0941,0.2488 0.25313,0.4679 0.46053,0.6345 1.20418,1.071 61.0396198,37.2245 61.1908198,37.446 0.0442,0.0665 0.2511,0.0115 0.4807,-0.1262 -7.0091,-4.4956 -56.5680998,-34.7838 -62.1320498,-37.9543 z"
     fill="#1f1f39"
     id="path114" />
  <path
     d="m 63.223858,44.436647 c -0.0616,0.7295 7.5384,2.0748 8.1328,1.6664 l 0.0256,-0.0078 c 0.4062,-0.4629 -4.2184,-6.5303 -4.6026,-6.4414 -0.3842,0.089 -0.5614,2.223 -1.1086,3.2199 l -0.0183,0.0056 c -0.5491,0.9775 -2.3899,1.0424 -2.4289,1.5573 z"
     fill="#ffffff"
     id="path116" />
  <path
     opacity="0.22"
     d="m 63.223758,44.436647 c -0.0616,0.7294 7.5384,2.0747 8.1328,1.6663 -2.2386,-1.7545 -4.4232,-2.8986 -5.7028,-3.22 -0.5502,0.9739 -2.391,1.0387 -2.43,1.5537 z"
     fill="#1f1f39"
     id="path118" />
</svg>
