<svg width="60" height="20" viewBox="0 0 60 20" fill="none" xmlns="http://www.w3.org/2000/svg">
<path d="M25.4454 10.3004C25.4454 13.1164 23.2424 15.1915 20.5389 15.1915C17.8353 15.1915 15.6323 13.1164 15.6323 10.3004C15.6323 7.46456 17.8353 5.40933 20.5389 5.40933C23.2424 5.40933 25.4454 7.46456 25.4454 10.3004ZM23.2975 10.3004C23.2975 8.54069 22.0207 7.33666 20.5389 7.33666C19.057 7.33666 17.7802 8.54069 17.7802 10.3004C17.7802 12.0425 19.057 13.2642 20.5389 13.2642C22.0207 13.2642 23.2975 12.0403 23.2975 10.3004Z" fill="#EA4335"/>
<path d="M36.0303 10.3004C36.0303 13.1164 33.8274 15.1915 31.1238 15.1915C28.4203 15.1915 26.2173 13.1164 26.2173 10.3004C26.2173 7.46677 28.4203 5.40933 31.1238 5.40933C33.8274 5.40933 36.0303 7.46456 36.0303 10.3004ZM33.8825 10.3004C33.8825 8.54069 32.6057 7.33666 31.1238 7.33666C29.6419 7.33666 28.3651 8.54069 28.3651 10.3004C28.3651 12.0425 29.6419 13.2642 31.1238 13.2642C32.6057 13.2642 33.8825 12.0403 33.8825 10.3004Z" fill="#FBBC05"/>
<path d="M46.1743 5.70483V14.4859C46.1743 18.0979 44.0441 19.5732 41.5258 19.5732C39.1552 19.5732 37.7284 17.9877 37.1904 16.691L39.0604 15.9126C39.3934 16.7087 40.2093 17.6481 41.5236 17.6481C43.1355 17.6481 44.1345 16.6536 44.1345 14.7814V14.0779H44.0595C43.5788 14.6711 42.6526 15.1893 41.4839 15.1893C39.0383 15.1893 36.7979 13.0591 36.7979 10.3181C36.7979 7.55718 39.0383 5.40933 41.4839 5.40933C42.6504 5.40933 43.5766 5.92755 44.0595 6.5031H44.1345V5.70703H46.1743V5.70483ZM44.2867 10.3181C44.2867 8.59582 43.1378 7.33666 41.6757 7.33666C40.1938 7.33666 38.9523 8.59582 38.9523 10.3181C38.9523 12.0227 40.1938 13.2642 41.6757 13.2642C43.1378 13.2642 44.2867 12.0227 44.2867 10.3181Z" fill="#4285F4"/>
<path d="M49.5373 0.557922V14.8916H47.4424V0.557922H49.5373Z" fill="#34A853"/>
<path d="M57.7006 11.9102L59.3677 13.0216C58.8297 13.8177 57.533 15.1893 55.2926 15.1893C52.514 15.1893 50.439 13.0414 50.439 10.2982C50.439 7.38956 52.5317 5.4071 55.0522 5.4071C57.5904 5.4071 58.8319 7.42705 59.2376 8.51862L59.4604 9.07432L52.922 11.7823C53.4226 12.7636 54.201 13.2642 55.2926 13.2642C56.3863 13.2642 57.1449 12.7261 57.7006 11.9102ZM52.5692 10.1505L56.9398 8.33559C56.6995 7.72475 55.9762 7.29915 55.125 7.29915C54.0334 7.29915 52.514 8.26281 52.5692 10.1505Z" fill="#EA4335"/>
<path d="M7.7027 9.02802V6.95294H14.6953C14.7637 7.31459 14.799 7.74239 14.799 8.20548C14.799 9.76234 14.3734 11.6875 13.0018 13.0591C11.6676 14.4484 9.96301 15.1893 7.70491 15.1893C3.51947 15.1893 0 11.7801 0 7.59465C0 3.40921 3.51947 0 7.70491 0C10.0203 0 11.6698 0.908535 12.9091 2.09272L11.4449 3.55696C10.5562 2.7234 9.35218 2.07508 7.7027 2.07508C4.64632 2.07508 2.2559 4.53826 2.2559 7.59465C2.2559 10.651 4.64632 13.1142 7.7027 13.1142C9.68516 13.1142 10.8142 12.3181 11.5375 11.5948C12.1241 11.0083 12.51 10.1703 12.6622 9.02581L7.7027 9.02802Z" fill="#4285F4"/>
</svg>
