<svg width="56" height="17" viewBox="0 0 56 17" fill="none" xmlns="http://www.w3.org/2000/svg">
<path d="M53.5368 14.1224C54.6384 14.1224 55.4188 13.9235 56.0002 13.4951V11.5519C55.4035 11.965 54.6843 12.2251 53.6745 12.2251C51.9762 12.2251 51.2723 10.9093 51.2723 8.82842C51.2723 6.64044 52.1292 5.5235 53.6898 5.5235C54.6078 5.5235 55.5106 5.84481 55.9849 6.15082V4.13115C55.48 3.85574 54.6078 3.65683 53.4144 3.65683C50.3696 3.65683 48.7936 5.84481 48.7936 8.90492C48.8089 12.2557 50.3543 14.1224 53.5368 14.1224ZM38.6494 13.235V11.2918C37.9149 11.7967 36.6603 12.2404 35.5128 12.2404C33.7685 12.2404 33.1106 11.4142 33.0035 9.73115H38.7565V8.4765C38.7565 4.97268 37.2111 3.65683 34.8395 3.65683C31.9324 3.65683 30.5554 5.87541 30.5554 8.92022C30.5554 12.424 32.2843 14.1224 35.3139 14.1224C36.8286 14.1224 37.9456 13.7093 38.6494 13.235ZM16.8155 3.84044V7.81858H13.633V3.84044H11.2461V13.9235H13.633V9.71585H16.8155V13.9235H19.2024V3.84044H16.8155ZM29.9587 12.0262H28.9029V3.84044H21.9565V4.69727C21.9565 7.16066 21.8035 10.3432 20.9619 12.0262H20.1969V16.2186H22.4002V13.9235H27.7401V16.2186H29.9434V12.0262H29.9587ZM46.2537 13.9235H48.9619L45.1368 8.4918L48.5029 3.84044H46.1007L42.7346 8.4918V3.84044H40.3477V13.9235H42.7346V8.96612L46.2537 13.9235ZM34.7783 5.5235C35.9565 5.5235 36.3237 6.50273 36.3237 7.77268V7.97158H33.0035C33.0647 6.36503 33.6461 5.5235 34.7783 5.5235ZM26.516 12.0262H23.1499C23.8078 10.5115 23.9915 7.75738 23.9915 6.01311V5.7071H26.516V12.0262Z" fill="black"/>
<path d="M9.25683 13.9235H6.82405V1.88197H5.73771C3.74864 1.88197 2.7082 2.8765 2.7082 4.36066C2.7082 6.04372 3.42732 6.82404 4.91148 7.81858L6.13552 8.64481L2.61639 13.9235H0L3.16721 9.21093C1.34645 7.91038 0.321312 6.64044 0.321312 4.49836C0.321312 1.82077 2.18798 0 5.72241 0H9.24153V13.9235H9.25683Z" fill="#FC3F1D"/>
</svg>
